<svg xmlns="http://www.w3.org/2000/svg" width="620" height="420" viewBox="0 0 620 420">
  <defs>
    <filter id="vanityShadow" x="-30%" y="-30%" width="160%" height="160%">
      <feDropShadow dx="0" dy="28" stdDeviation="22" flood-color="#000000" flood-opacity="0.55" />
    </filter>
    <linearGradient id="statuarioSlab" x1="0%" y1="0%" x2="100%" y2="100%">
      <stop offset="0%" stop-color="#FFFFFF" />
      <stop offset="45%" stop-color="#F4F6F8" />
      <stop offset="100%" stop-color="#E2E8F0" />
    </linearGradient>
    <linearGradient id="smokedOakWood" x1="0%" y1="0%" x2="0%" y2="100%">
      <stop offset="0%" stop-color="#3D291D" />
      <stop offset="50%" stop-color="#281A12" />
      <stop offset="100%" stop-color="#190F0A" />
    </linearGradient>
    <linearGradient id="vanityGoldBar" x1="0%" y1="0%" x2="100%" y2="0%">
      <stop offset="0%" stop-color="#C59E33" />
      <stop offset="50%" stop-color="#FCEBA6" />
      <stop offset="100%" stop-color="#997A1E" />
    </linearGradient>
  </defs>

  <g filter="url(#vanityShadow)">
    <!-- 1. Floating Fluted Smoked Oak Wooden Vanity Cabinet -->
    <rect x="70" y="170" width="480" height="160" rx="8" fill="url(#smokedOakWood)" stroke="#190F0A" stroke-width="2" />

    <!-- Fluted Vertical Wood Slat Slits -->
    <g stroke="#140B07" stroke-width="2.5" opacity="0.8">
      <line x1="85" y1="172" x2="85" y2="328" /><line x1="100.5" y1="172" x2="100.5" y2="328" /><line x1="116" y1="172" x2="116" y2="328" /><line x1="131.5" y1="172" x2="131.5" y2="328" /><line x1="147" y1="172" x2="147" y2="328" /><line x1="162.5" y1="172" x2="162.5" y2="328" /><line x1="178" y1="172" x2="178" y2="328" /><line x1="193.5" y1="172" x2="193.5" y2="328" /><line x1="209" y1="172" x2="209" y2="328" /><line x1="224.5" y1="172" x2="224.5" y2="328" /><line x1="240" y1="172" x2="240" y2="328" /><line x1="255.5" y1="172" x2="255.5" y2="328" /><line x1="271" y1="172" x2="271" y2="328" /><line x1="286.5" y1="172" x2="286.5" y2="328" /><line x1="302" y1="172" x2="302" y2="328" /><line x1="317.5" y1="172" x2="317.5" y2="328" /><line x1="333" y1="172" x2="333" y2="328" /><line x1="348.5" y1="172" x2="348.5" y2="328" /><line x1="364" y1="172" x2="364" y2="328" /><line x1="379.5" y1="172" x2="379.5" y2="328" /><line x1="395" y1="172" x2="395" y2="328" /><line x1="410.5" y1="172" x2="410.5" y2="328" /><line x1="426" y1="172" x2="426" y2="328" /><line x1="441.5" y1="172" x2="441.5" y2="328" /><line x1="457" y1="172" x2="457" y2="328" /><line x1="472.5" y1="172" x2="472.5" y2="328" /><line x1="488" y1="172" x2="488" y2="328" /><line x1="503.5" y1="172" x2="503.5" y2="328" /><line x1="519" y1="172" x2="519" y2="328" /><line x1="534.5" y1="172" x2="534.5" y2="328" />
    </g>

    <!-- Champagne Gold Horizontal Pull Handles -->
    <rect x="160" y="240" width="90" height="7" rx="3.5" fill="url(#vanityGoldBar)" stroke="#785B12" stroke-width="1" />
    <rect x="370" y="240" width="90" height="7" rx="3.5" fill="url(#vanityGoldBar)" stroke="#785B12" stroke-width="1" />

    <!-- 2. Italian Statuario White Marble Seamless Countertop Slab (Beveled Edge in 3/4 Perspective) -->
    <polygon points="50,170 570,170 555,115 65,115" fill="url(#statuarioSlab)" stroke="#CAD5E0" stroke-width="2" />
    <!-- Subtle Grey Marble Veins on Countertop -->
    <path d="M 120 125 Q 200 140 320 130 T 490 150" stroke="#94A3B8" stroke-width="3" fill="none" opacity="0.4" filter="blur(1px)" />
    <!-- Countertop Front Apron -->
    <rect x="50" y="165" width="520" height="16" rx="3" fill="#E2E8F0" stroke="#CBD5E1" stroke-width="1" />

    <!-- 3. Integrated Undermount Ceramic Basin -->
    <ellipse cx="310" cy="140" rx="90" ry="26" fill="#FFFFFF" stroke="#CBD5E0" stroke-width="2" />
    <ellipse cx="310" cy="143" rx="70" ry="18" fill="#EDF2F7" />
    <!-- Gold Basin Click-Clack Stopper -->
    <ellipse cx="310" cy="147" rx="11" ry="4" fill="url(#vanityGoldBar)" />

    <!-- 4. Contemporary Tall Champagne Gold Mixer Faucet -->
    <rect x="304" y="68" width="12" height="52" fill="url(#vanityGoldBar)" stroke="#785B12" stroke-width="1" />
    <path d="M 310 68 C 310 35, 345 35, 345 62 L 342 85" fill="none" stroke="url(#vanityGoldBar)" stroke-width="11" stroke-linecap="round" />
  </g>
</svg>